<svg width="1046" height="321" viewBox="0 0 1046 321" fill="none" xmlns="http://www.w3.org/2000/svg">
<path d="M168.621 134.538C168.621 122.038 167.621 116.538 161.121 105.538C178.721 109.538 188.121 126.538 190.621 134.538H168.621Z" fill="white"/>
<path d="M168.621 186.538C168.621 199.038 167.621 204.538 161.121 215.538C178.721 211.538 188.121 194.538 190.621 186.538H168.621Z" fill="white"/>
<path d="M161.121 105.537C148.454 101.037 113.521 94.7374 75.1211 105.537C83.1211 88.0373 129.621 61.0377 161.121 105.537Z" fill="white"/>
<path d="M161.121 215.538C148.454 220.038 113.521 226.338 75.1211 215.538C83.1211 233.038 129.621 260.037 161.121 215.538Z" fill="white"/>
<path d="M74.1211 214.538C68.743 198.925 61.2137 153.868 74.1211 106.538C45.1211 105.038 14.6211 184.538 74.1211 214.538Z" fill="white"/>
<path d="M210.621 239.803V81H231.167V239.803H210.621Z" fill="white"/>
<path d="M337.417 125.088H357.963V238.519H338.487V221.397C330.14 233.168 316.015 239.803 299.964 239.803C270.643 239.803 251.167 223.751 251.167 190.364V125.088H271.713V188.01C271.713 210.268 282.842 221.397 302.318 221.397C323.72 221.397 337.417 208.128 337.417 183.73V125.088Z" fill="white"/>
<path d="M488.965 182.446C488.965 184.158 488.75 186.726 488.534 188.652H395.691C398.282 208.556 414.475 221.825 437.146 221.825C450.533 221.825 461.76 217.331 470.181 208.128L481.624 221.397C471.261 233.382 455.499 239.803 436.498 239.803C399.577 239.803 374.963 215.619 374.963 181.803C374.963 148.202 399.361 124.018 432.396 124.018C465.431 124.018 488.965 147.56 488.965 182.446ZM432.396 141.354C412.532 141.354 397.85 154.623 395.691 173.885H469.101C466.942 154.837 452.476 141.354 432.396 141.354Z" fill="white"/>
<path d="M525.523 221.531C527.136 185.524 546.483 173.163 562.605 160.803C507.574 178.43 500.265 220.814 503.489 239.803H622.796V221.531H525.523Z" fill="white"/>
<path d="M599.687 100.075C598.074 136.082 578.727 148.442 562.605 160.803C617.636 143.176 626.02 100.791 622.796 81.8027H495.966V100.075H599.687Z" fill="white"/>
<path d="M747.087 182.339C747.087 184.054 746.871 186.627 746.654 188.557H653.64C656.236 208.498 672.46 221.792 695.172 221.792C708.584 221.792 719.832 217.289 728.268 208.069L739.732 221.363C729.349 233.37 713.559 239.803 694.523 239.803C657.534 239.803 632.875 215.574 632.875 181.696C632.875 148.032 657.318 123.803 690.413 123.803C723.509 123.803 747.087 147.389 747.087 182.339ZM690.413 141.171C670.513 141.171 655.804 154.464 653.64 173.762H727.186C725.023 154.679 710.53 141.171 690.413 141.171Z" fill="white"/>
<path d="M784.852 145.245C792.262 131.951 806.645 125.089 826.912 125.089V145.03C825.169 144.816 823.643 144.816 822.118 144.816C799.671 144.816 785.724 158.324 785.724 183.197V239.803H764.803V126.161H784.852V145.245Z" fill="white"/>
<path d="M921.626 142.405C912.437 139.141 887.096 134.571 859.24 142.405C865.044 129.71 898.775 110.124 921.626 142.405Z" fill="white"/>
<path d="M921.626 222.2C912.437 225.465 887.096 230.035 859.24 222.2C865.044 234.895 898.775 254.481 921.626 222.2Z" fill="white"/>
<path d="M858.873 221.162C854.972 209.837 849.51 177.152 858.873 142.818C837.836 141.73 815.711 199.4 858.873 221.162Z" fill="white"/>
<path d="M922.264 221.298C926.165 209.972 931.627 177.287 922.264 142.953C943.3 141.865 965.426 199.535 922.264 221.298Z" fill="white"/>
</svg>
