<svg width="32" height="32" viewBox="0 0 32 32" fill="none" xmlns="http://www.w3.org/2000/svg">
  <rect width="32" height="32" rx="7" fill="#09090b"/>
  <g transform="translate(3.5, 3.2) scale(0.033)">
    <path d="M585.706 117.82C524.203 95.9702 354.583 65.3805 168.131 117.82C206.975 32.8482 432.757 -98.249 585.706 117.82Z" fill="white"/>
    <path d="M585.706 651.929C524.203 673.779 354.583 704.369 168.131 651.929C206.975 736.901 432.757 867.999 585.706 651.929Z" fill="white"/>
    <path d="M165.676 644.982C139.562 569.175 103.004 350.398 165.676 120.586C24.8657 113.302 -123.228 499.316 165.676 644.982Z" fill="white"/>
    <path d="M589.969 645.887C616.083 570.081 652.642 351.304 589.969 121.491C730.78 114.207 878.873 500.222 589.969 645.887Z" fill="white"/>
  </g>
</svg>
